<?xml version="1.0" encoding="utf-8"?>
<!-- Generator: Adobe Illustrator 22.1.0, SVG Export Plug-In . SVG Version: 6.00 Build 0)  -->
<svg version="1.1" id="Layer_1" xmlns="http://www.w3.org/2000/svg" xmlns:xlink="http://www.w3.org/1999/xlink" x="0px" y="0px"
	 viewBox="0 0 300 311.1" style="enable-background:new 0 0 300 311.1;" xml:space="preserve">
<style type="text/css">
	.st0{fill:#159E94;}
	.st1{fill:#FFE566;}
	.st2{fill:#CC3C1F;}
</style>
<g transform="translate(-185.2 -289.63)">
	<path class="st0" d="M393.3,302.2l-20.5,4.1c-11.3,2.3-20.7,4.3-20.9,4.5s7.2,4.6,16.5,9.8s17,9.4,17,9.4c0,0,10-2.5,22.1-5.5
		l22.1-5.5l-4.3-2c-2.4-1.1-10.5-4.9-18.2-8.4L393.3,302.2L393.3,302.2z"/>
	<path class="st0" d="M344.2,312.3l-30.9,6.3c-17,3.5-31.4,6.5-32,6.8c-0.8,0.3,4.2,3.4,17.2,10.8c10,5.7,18.5,10.4,18.7,10.4
		s13.8-3.2,30-7.2s30-7.4,30.6-7.6c0.6-0.2-6.4-4.4-16.3-9.9L344.2,312.3L344.2,312.3z"/>
	<path class="st0" d="M363.4,288.4l-18.7,3.1c-10.3,1.7-19.4,3.3-20.3,3.6c-1.4,0.4-0.2,1.3,9.2,6.5c6,3.3,11,6,11.2,6.1
		s9.2-1.8,20.1-4s20-4.3,20.3-4.5s-4.5-2.8-10.7-5.6L363.4,288.4L363.4,288.4z"/>
	<path class="st0" d="M315.2,296.4l-33.3,5.5c-18.3,3-33.1,5.7-32.8,6c0.6,0.6,24.6,14.3,25.1,14.3c0.2,0,14.3-2.8,31.4-6.3
		s31.3-6.5,31.6-6.8s-4.5-3.2-10.7-6.6L315.2,296.4L315.2,296.4z"/>
	<path class="st0" d="M241,308.6l-23.5,3.9c-13,2.1-23.7,4-23.9,4.2s0.1,0.6,0.6,0.9s6,4,12.2,8.2s11.7,7.6,12.2,7.6
		s11.4-2.1,24.1-4.7s23.3-4.9,23.6-5.1c0.3-0.2-5.3-3.7-12.4-7.7L241,308.6L241,308.6z"/>
	<path class="st0" d="M436.1,322l-22.3,5.4c-13.4,3.3-22,5.7-21.6,6c0.3,0.3,8.6,5,18.3,10.4l17.7,9.8l3.7-0.8
		c2-0.5,13.4-3,25.3-5.6s21.6-5,21.6-5.2c0-0.2-4.7-2.5-10.4-5.1s-15.3-7-21.4-9.8L436.1,322L436.1,322z"/>
	<path class="st0" d="M271.9,327.2c-0.8,0.2-11.6,2.4-24.2,5c-12.5,2.5-23.1,4.7-23.4,4.8s7.4,5.6,17.1,12.1l17.8,11.9L279,356
		c10.9-2.7,22.5-5.5,25.6-6.3s5.5-1.6,5.3-1.9s-8.6-5.1-18.6-10.8C279,330.1,272.8,327,271.9,327.2L271.9,327.2z"/>
	<path class="st0" d="M384.7,334.7l-30.5,7.4c-16.8,4.1-30.5,7.6-30.5,7.8s7.6,4.7,16.9,9.9l16.9,9.6l31.6-7
		c17.4-3.9,31.7-7.2,31.9-7.3s-8-4.8-18-10.4L384.7,334.7L384.7,334.7z"/>
	<path class="st0" d="M316.5,351.3l-25.8,6.4c-14.2,3.5-25.8,6.5-25.8,6.7c0,0.5,27.9,19.2,28.7,19.2c0.4,0,13.3-2.8,28.7-6.3
		s28.1-6.4,28.2-6.5s-7.5-4.5-16.9-9.8L316.5,351.3L316.5,351.3z"/>
	<path class="st1" d="M185.2,321.7c-0.1,0.1,0.3,13.2,0.9,29.2c0.9,25.1,1.2,29.2,2.1,30.2c1.3,1.3,25.3,18.3,26,18.3
		c0.2,0,0.3-13,0.1-28.9s-0.5-29.3-0.6-29.7C213.4,340,185.6,321.4,185.2,321.7L185.2,321.7z"/>
	<path class="st1" d="M218.3,343.3l-0.2,2.2c-0.1,1.2,0.1,14.6,0.3,29.9L219,403l15.2,10.7c8.4,5.9,15.2,10.6,15.3,10.6
		s0.3-13.5,0.6-29.9l0.5-29.9l-16.1-10.6L218.3,343.3L218.3,343.3z"/>
	<path class="st2" d="M485.2,347.5c-0.3-0.3-54.4,12-54.8,12.4c-0.3,0.3-4.3,53.7-4.3,57.2c0,1.2,0.2,2.1,0.4,2.1s11.7-2.9,25.6-6.4
		s25.4-6.6,25.6-6.8C478.1,405.7,485.5,347.9,485.2,347.5L485.2,347.5z"/>
	<path class="st2" d="M425,361.4c-4.1,0.4-63,13.5-63.8,14.2c-0.2,0.2-0.8,10.3-1.2,22.5s-0.9,25.8-1.1,30.2s-0.1,8.1,0.2,8.1
		c0.3,0,14.3-3.5,31.1-7.8s30.7-7.9,30.8-8.1c0.5-0.5,4.6-58.6,4.1-59.1C425.2,361.4,425.1,361.4,425,361.4L425,361.4z"/>
	<path class="st1" d="M254.4,367.1l-0.2,29.9c-0.2,22.4,0,30.1,0.6,30.8c1,1.1,32,23.1,32.7,23.2c0.3,0,0.5-10.9,0.5-24.2
		s0.2-27.2,0.4-30.7l0.4-6.4l-1.8-0.7c-1-0.4-7.9-4.9-15.5-10.1s-14.5-9.9-15.5-10.6L254.4,367.1L254.4,367.1z"/>
	<path class="st2" d="M355.5,377c-3.1,0-60.7,13.5-61.4,14.4c-0.6,0.8-0.8,8-0.8,31.2c0,16.6,0.2,30.3,0.5,30.3s13.8-3.4,30.1-7.5
		s29.9-7.8,30.1-8.1s0.8-12.6,1.3-27.3s0.9-28.2,1.1-29.9C356.7,377.4,356.5,377,355.5,377L355.5,377z"/>
	<path class="st1" d="M187.8,387.1c-0.5,0.5,1.1,50.1,1.7,53.1c0.3,1.7,2.7,4,13,12.8l12.5,10.7l0.2-9.2c0.1-5-0.1-18.2-0.3-29.2
		l-0.5-20.1l-13.1-9.2C194.1,390.9,188,386.9,187.8,387.1L187.8,387.1z"/>
	<path class="st1" d="M219.1,408.8c-0.1,0.1,0,13.4,0.2,29.4c0.3,22.5,0.5,29.4,1.2,30c0.5,0.5,7,6.1,14.5,12.5l13.7,11.6l0.4-14.3
		c0.2-7.9,0.4-21.9,0.5-31.2l0.1-16.9l-15.2-10.7C226.1,413.4,219.2,408.7,219.1,408.8L219.1,408.8z"/>
	<path class="st2" d="M476.6,411.3c-0.8,0-50.8,12.6-51.1,12.8c-0.2,0.2-4.8,61.9-4.8,64c0,0.7,0.4,1.1,0.8,0.9
		c0.5-0.2,11-3.1,23.4-6.4s22.9-6.4,23.4-6.7c0.6-0.4,2.1-10.3,4.6-30.5c2.1-16.5,3.9-30.9,4.1-32.1
		C477.3,412.1,477.2,411.3,476.6,411.3L476.6,411.3z"/>
	<path class="st2" d="M420.7,425.3l-30.8,7.8c-16.9,4.3-30.9,7.9-31.1,8.1c-0.3,0.3-2.2,50.9-2.2,60l0,5.7l29.4-8.1
		c16.2-4.4,29.6-8.2,29.8-8.5c0.4-0.4,4.8-57.8,4.8-62.6L420.7,425.3L420.7,425.3z"/>
	<path class="st1" d="M254,433.1c-0.2,0-0.3,14.3-0.3,31.9l0,31.9l16.3,13.8l16.3,13.8l0.4-8.5c0.2-4.7,0.5-20,0.5-34l0.1-25.5
		l-16.5-11.6C261.7,438.4,254.1,433.1,254,433.1L254,433.1z"/>
	<path class="st2" d="M353.9,442.7c-0.3-0.3-60,14.7-60.4,15.1c-0.1,0.1-0.3,15.1-0.6,33.4c-0.5,32.8-0.5,33.3,0.8,32.9l29.7-8.1
		l28.4-7.8l0.4-7C353,489.1,354.2,443,353.9,442.7L353.9,442.7z"/>
	<path class="st1" d="M189.8,449C189.8,449,189.8,449,189.8,449c-0.1,0.5,0.2,11.6,0.7,24.6l0.9,23.6l1.7,1.8l12.2,13.3l10.5,11.5
		l0.2-12.5c0.1-6.9,0-19-0.2-27.1l-0.5-14.6l-12.6-10.8C195.5,452.8,190.2,448.8,189.8,449L189.8,449z"/>
	<path class="st1" d="M220.3,474l-0.2,12.4c-0.1,6.8,0,19.3,0.2,27.7l0.5,15.2l13.6,14.9l13.6,14.9l0.4-8.6
		c0.2-4.8,0.5-18.4,0.5-30.3l0.1-21.6l-14.4-12.3L220.3,474L220.3,474z"/>
	<path class="st2" d="M467.1,481.7c-2.1,0.1-8,1.7-22.9,5.8c-13.1,3.6-23.8,6.6-23.9,6.6s-0.9,11.1-1.9,24.6
		c-1,13.4-1.9,26.2-2.2,28.3c-0.4,3.6-0.3,3.9,0.8,3.4c0.7-0.3,10.8-4.1,22.4-8.4s21.4-8.2,21.7-8.5c0.6-0.6,7.1-49.7,6.8-51.5
		C468.1,481.7,467.8,481.6,467.1,481.7L467.1,481.7z"/>
	<path class="st2" d="M415.5,495.6c-0.4-0.2-58.6,15.7-59,16.2c-0.2,0.2-0.6,12-1,26.4s-0.9,28.2-1.1,30.9s-0.2,4.8,0,4.8
		s13.2-4.8,28.8-10.6l28.4-10.6l0.4-2.1C412.4,546.5,415.8,495.8,415.5,495.6L415.5,495.6z"/>
	<path class="st1" d="M253.6,502.6c-0.3-0.1-0.6,13.8-0.6,30.8v31.1l16,17.5c8.8,9.6,16.2,17.5,16.4,17.5c0.2,0,0.6-11.6,0.8-25.8
		s0.4-29.7,0.4-34.5l0-8.6l-16.3-13.9C261.4,509,253.9,502.7,253.6,502.6L253.6,502.6z"/>
	<path class="st2" d="M351.7,513.2c-0.2-0.2-17.7,4.5-57.9,15.6c-1.1,0.3-1.2,2.5-1.2,34.3c0,18.8,0.3,33.9,0.6,33.8l28.7-10.8
		l28.1-10.5l0-4c0-2.2,0.4-16.2,0.9-31S351.9,513.3,351.7,513.2L351.7,513.2z"/>
</g>
</svg>
